<svg width="48" height="49" viewBox="0 0 48 49" fill="none" xmlns="http://www.w3.org/2000/svg">
<g id="Vector">
<path id="Vector_2" d="M23.9996 20.1363V29.4309H36.916C36.3488 32.4199 34.6468 34.9509 32.0941 36.6527L39.8831 42.6964C44.4213 38.5075 47.0395 32.3547 47.0395 25.0456C47.0395 23.3438 46.8868 21.7073 46.6031 20.1366L23.9996 20.1363Z" fill="#765029"/>
<path id="Vector_3" d="M10.5494 29.0681L8.79263 30.4128L2.57434 35.2564C6.52342 43.089 14.6174 48.5 23.9991 48.5C30.4789 48.5 35.9116 46.3618 39.8826 42.6965L32.0936 36.6528C29.9554 38.0928 27.2281 38.9656 23.9991 38.9656C17.7591 38.9656 12.4575 34.7547 10.5592 29.0819L10.5494 29.0681Z" fill="#CCCFBA"/>
<path id="Vector_4" d="M2.57436 13.7437C0.938084 16.9726 0 20.6163 0 24.4999C0 28.3834 0.938084 32.0271 2.57436 35.2561C2.57436 35.2778 10.5599 29.0597 10.5599 29.0597C10.08 27.6197 9.79624 26.0926 9.79624 24.4996C9.79624 22.9067 10.08 21.3795 10.5599 19.9395L2.57436 13.7437Z" fill="#D6CDBD"/>
<path id="Vector_5" d="M23.9996 10.0564C27.5342 10.0564 30.676 11.2781 33.1851 13.6345L40.0577 6.7619C35.8904 2.87833 30.4797 0.5 23.9996 0.5C14.6179 0.5 6.52342 5.88908 2.57434 13.7437L10.5597 19.94C12.4578 14.2672 17.7596 10.0564 23.9996 10.0564Z" fill="#3E422E"/>
</g>
</svg>
